<svg xmlns="http://www.w3.org/2000/svg" width="100px" height="100px" viewBox="0 0 375.7 375.7" clip-rule="evenodd" fill-rule="evenodd" image-rendering="optimizeQuality" preserveAspectRatio="xMidYMid">

	<g>

		<path class="fil0 str0" d="M224.4 311.1c.9-0.4 1.7-0.8 2.6-1.1l.1-0.1l1.6-0.7l.6-0.2c70.7-32.1 72.7-107.6-13.1-150.6c-63.7-31.8-35.6-82.4 42.9-61h.2c33 9.1 58.4 23.2 76.5 40.3c49.3 46.6 44 115.5-11.9 164.1c-9.7 8.4-20.7 16.1-32.9 22.8c-7.5 4.2-15.4 7.9-23.6 11.3h-0.1c-15.1 6.1-31.3 10.9-48.3 13.8c-4.2 .8-8.5 1.4-12.8 1.9c-0.1 0-0.2 0-0.3 0c-29.1 3.5-59.9 1.8-90.5-6.6c-27.8-7.7-55.5-20.9-81.3-40.8c64.6 20.5 118 23.7 158.4 16.1c11.5-2.2 21.9-5.2 31.3-9c.2 0 .4-0.2 .6-0.2c.4-0.2 .8-0.3 1.2-0.5c-0.4 .2-0.8 .3-1.2 .5Zm34.9-213.6c.3 0 .5 .1 .8 .2c-0.3-0.1-0.5-0.2-0.8-0.2Z" fill="#257db8" stroke-miterlimit="22.9" stroke-linecap="round" stroke-width="12.4" stroke-linejoin="round" stroke="#fff"/>

		<path class="fil1 str0" d="M108.3 23.6c.1 0 .1 0 .1 0c15.1-6.2 31.4-10.9 48.3-13.8c4.2-0.8 8.5-1.4 12.9-1.9h.2c55.8-6.7 117.8 5.7 171.8 47.4c-83-26.4-147.4-24.1-189.6-7.1c-0.2 .1-0.5 .1-0.7 .2c-62.8 25.6-76.1 83.9-28.4 128l-0.2-0.2l.2 .2c0 0 0 0 .1 0c9.6 9 21.8 17.3 36.5 24.7c57.8 28.9 40 73.3-22.6 65.2c-6.3-0.9-13.2-2.2-20.5-4.2c-122.9-33.6-141-138-64.6-204.4c15.7-13.7 35-25.3 56.5-34.1Z" fill="#008dd1" stroke-miterlimit="22.9" stroke-linecap="round" stroke-width="12.4" stroke-linejoin="round" stroke="#fff"/>

		<path class="fil2" d="M323.9 301.8c-9.7 8.4-20.7 16.1-32.9 22.8c2.3-1.8-4.8-9.2-2.7-11.1c53.6-46.6 65.8-106.6 44.2-159.3c-2.9-7.1 3.2-10 3.3-16.5c49.3 46.6 44 115.5-11.9 164.1Z" fill="#22a9da"/>

		<path class="fil1" d="M335.8 137.7c-18.1-17.1-43.5-31.2-76.5-40.2c-0.1-0.1-0.3-0.1-0.4-0.1c.1 0 .3 0 .4 .1c10.9 2.8 11.7 15.3 19.2 21.7c15.9 13.5 20.3 30.8 21.9 53.7c2.5 34.1 2.3 67.8-22.6 97.8c-13.1 15.8-29.6 30.1-49.1 38.5c-1.4 .6-2.8 1.3-4.3 1.9c-0.2 0-0.4 .2-0.6 .2c-9.4 3.8-19.8 6.8-31.3 9c-40.4 7.6-93.8 4.4-158.4-16.1c25.8 19.9 53.5 33.1 81.3 40.8c30.6 8.4 61.4 10.1 90.5 6.6c.1 0 .2 0 .3 0c4.3-0.5 8.6-1.1 12.8-1.9c17-2.9 33.2-7.7 48.3-13.8h.1c8.2-3.4 16.1-7.1 23.6-11.3c2.3-1.8 4.5-3.6 6.7-5.5c60.7-52.9 74.5-124.6 38.1-181.4Z" fill="#008dd1"/>

		<path class="fil0" d="M224.4 311.1c75.5-30.8 79.6-108.8-8.2-152.7c-63.7-31.9-35.6-82.5 43.1-60.9c88 23 62 176.2-34.9 213.6Z" fill="#257db8"/>

		<path class="fil2" d="M341.6 55.3c-83-26.4-147.4-24.1-189.6-7.1c-0.2 .1-0.5 .1-0.7 .2c-62.8 25.6-76.1 83.9-28.4 128c-12.6-10.4-26.9-21.5-33.2-35.6c-7.9-18.1-10.3-40.4-7.1-59.1c4.3-25.3 20.3-48.2 46.7-62.2c10.5-5.5 26.3-9.5 40.5-11.6c55.8-6.7 117.8 5.7 171.8 47.4Z" fill="#22a9da"/>

		<path class="fil1" d="M137 266.3c-5.5-1.8-11.6-2.6-16.7-4.7c-64.1-25.7-98.3-73.7-97.1-121c.9-33.6 20.6-67.7 52.9-95.8c9.1-7.9 21.2-14.6 32.2-21.2c.1 0 .1 0 .1 0c15.1-6.2 31.4-10.9 48.3-13.8c4.3-0.8 8.7-1.4 13.1-1.9c-5.2 .8-10.1 1.8-14.8 3.1c-83 22.6-88 119.1-32.1 165.4c0 0 0 0 .1 0c9.6 8.9 21.8 17.3 36.5 24.7c57.8 28.9 40 73.2-22.5 65.2Z" fill="#008dd1"/>

		<path class="fil0" d="M137 266.3c-6.4-0.9-13.3-2.2-20.6-4.2c-122.9-33.6-141-138-64.6-204.4c15.7-13.7 35-25.3 56.5-34.1c-11.1 6.6-21.3 13.9-30.4 21.9c-81.3 70.6-65.1 180.6 59.1 220.8Z" fill="#257db8"/>

	</g>

</svg>